<?xml version="1.0" encoding="UTF-8" standalone="no"?>
<svg
   xmlns:dc="http://purl.org/dc/elements/1.1/"
   xmlns:cc="http://creativecommons.org/ns#"
   xmlns:rdf="http://www.w3.org/1999/02/22-rdf-syntax-ns#"
   xmlns:svg="http://www.w3.org/2000/svg"
   xmlns="http://www.w3.org/2000/svg"
   height="419.00226"
   width="479.6572"
   id="svg48"
   version="1.1"
   viewBox="0 0 479.6572 419.00226">
  <metadata
     id="metadata54">
    <rdf:RDF>
      <cc:Work
         rdf:about="">
        <dc:format>image/svg+xml</dc:format>
        <dc:type
           rdf:resource="http://purl.org/dc/dcmitype/StillImage" />
        <dc:title></dc:title>
      </cc:Work>
    </rdf:RDF>
  </metadata>
  <defs
     id="defs52" />
  <g
     id="g46"
     transform="translate(-132.3928,-282.92354)">
    <path
       id="path2"
       fill-rule="evenodd"
       d="m 351.64,138.48 h 70.454 a 10.342,10.406 0 0 1 10.342,10.406 v 28.739 a 10.342,10.406 0 0 1 -10.342,10.406 H 351.64 A 10.342,10.406 0 0 1 341.298,177.625 V 148.886 A 10.342,10.406 0 0 1 351.64,138.48"
       transform="matrix(0,1,1,0,0,0)" />
    <path
       id="path4"
       fill-rule="evenodd"
       d="M 149.09,421.35 H 600.9 a 8.9629,8.9629 0 0 1 8.9629,8.9629 v 262.65 A 8.9629,8.9629 0 0 1 600.9,701.9258 H 149.09 a 8.9629,8.9629 0 0 1 -8.9629,-8.9629 v -262.65 A 8.9629,8.9629 0 0 1 149.09,421.35" />
    <g
       id="g16"
       fill-rule="evenodd"
       transform="matrix(0.6937,0,0,0.68949,86.817,194.4)">
      <path
         id="path6"
         d="m 73.681,283.34 h 683.46 v 71.429 H 73.681 Z" />
      <path
         id="path8"
         fill="#ffffff"
         d="m 328.83,-392.17 h 65.393 v 73.897 H 328.83 Z"
         transform="matrix(1,0,0.46575,-0.85854,7.6294e-6,14.082)" />
      <path
         id="path10"
         fill="#ffffff"
         d="m 496.28,-392.17 h 65.393 v 73.897 H 496.28 Z"
         transform="matrix(1,0,0.46575,-0.85854,7.6294e-6,14.082)" />
      <path
         id="path12"
         fill="#ffffff"
         d="m 663.73,-392.17 h 65.393 v 73.897 H 663.73 Z"
         transform="matrix(1,0,0.46575,-0.85854,7.6294e-6,14.082)" />
      <path
         id="path14"
         fill="#ffffff"
         d="m 831.18,-392.17 h 65.393 v 73.897 H 831.18 Z"
         transform="matrix(1,0,0.46575,-0.85854,7.6294e-6,14.082)" />
    </g>
    <path
       id="path18"
       fill-rule="evenodd"
       d="m -563.07,354.79 h 474.08 v 49.253 h -474.08 z"
       transform="matrix(-0.99244,0.12275,0.12423,0.99225,0,0)" />
    <path
       id="path20"
       fill-rule="evenodd"
       fill="#ffffff"
       d="m 328.83,-392.17 h 65.393 v 73.897 H 328.83 Z"
       transform="matrix(-0.68839,0.08514,-0.39416,-0.54777,674.46,86.988)" />
    <path
       id="path22"
       fill-rule="evenodd"
       fill="#ffffff"
       d="m 496.28,-392.17 h 65.393 v 73.897 H 496.28 Z"
       transform="matrix(-0.68839,0.08514,-0.39416,-0.54777,674.46,86.988)" />
    <path
       id="path24"
       fill-rule="evenodd"
       fill="#ffffff"
       d="m 663.73,-392.17 h 65.393 v 73.897 H 663.73 Z"
       transform="matrix(-0.68839,0.08514,-0.39416,-0.54777,674.46,86.988)" />
    <path
       id="path26"
       fill-rule="evenodd"
       fill="#ffffff"
       d="m 831.18,-392.17 h 65.393 v 73.897 H 831.18 Z"
       transform="matrix(-0.68839,0.08514,-0.39416,-0.54777,674.46,86.988)" />
    <path
       id="path28"
       stroke-width="4"
       stroke="#ffffff"
       fill-rule="evenodd"
       fill="#ffffff"
       d="m 125.71,168.08 a 14.286,14.286 0 1 1 -28.571,0 14.286,14.286 0 1 1 28.571,0 z"
       transform="matrix(0.68839,-0.085142,0.085663,0.68421,71.898,255.39)" />
    <path
       id="path30"
       stroke-width="0.69159"
       stroke="#cccccc"
       fill="none"
       d="m 137.85,439.07 h 474.2" />
    <g
       id="g44"
       stroke="#ffffff"
       fill="none"
       transform="matrix(0.6937,0,0,0.68949,86.817,194.41)">
      <path
         id="path32"
         stroke-width="4"
         d="M 104.12,618.35 H 726.7" />
      <g
         id="g38"
         stroke-width="4"
         transform="translate(-20.782)">
        <path
           id="path34"
           d="M 307.96,713.15 V 619.317" />
        <path
           id="path36"
           d="M 564.43,713.15 V 619.317" />
      </g>
    </g>
  </g>
  <path
     d="m 33.267445,210.90662 v 70.06344 H 51.335272 V 251.26467 H 80.196176 V 237.6085 H 51.335272 v -13.04571 h 30.69027 v -13.65617 z m 65.700628,0 v 70.06344 H 148.75786 V 267.31389 H 117.03589 V 251.26467 H 145.8968 V 237.6085 h -28.86091 v -13.0457 h 30.69028 v -13.65617 z m 65.698597,0 v 70.06344 h 18.06781 v -26.51467 h 5.11573 c 2.94087,0 5.28671,0.64229 7.03871,1.92501 1.78328,1.28271 3.53541,3.67511 5.25612,7.17911 l 8.54047,17.41055 h 19.24195 l -9.8082,-19.8972 c -2.00227,-4.03586 -3.9892,-7.03951 -5.9602,-9.01051 -1.93971,-2.00229 -4.14589,-3.28485 -6.61747,-3.84799 4.50516,-1.40786 7.86976,-3.59853 10.09104,-6.57067 2.25258,-2.97214 3.37791,-6.77326 3.37791,-11.40354 0,-6.69516 -2.15759,-11.59058 -6.47502,-14.68787 -4.28614,-3.09729 -11.04435,-4.64566 -20.27365,-4.64566 z m 73.96027,0 v 70.06344 h 17.12973 v -51.24474 l 16.14282,37.77781 h 11.45035 l 16.14282,-37.77781 v 51.24474 h 17.08293 v -70.06344 h -22.94751 l -16.05125,37.49496 -15.9556,-37.49496 z m 95.73363,0 v 70.06344 h 49.79182 V 267.31389 H 352.42838 V 251.26467 H 381.2893 V 237.6085 h -28.86092 v -13.0457 h 30.69232 v -13.65617 z m 65.70063,0 v 70.06344 h 18.06782 v -26.51467 h 5.11572 c 2.94086,0 5.28671,0.64229 7.03871,1.92501 1.78328,1.28271 3.53541,3.67511 5.25612,7.17911 l 8.54045,17.41055 h 19.24196 l -9.80819,-19.8972 c -2.00228,-4.03586 -3.9892,-7.03951 -5.9602,-9.01051 -1.93972,-2.00229 -4.14591,-3.28485 -6.61747,-3.84799 4.50514,-1.40786 7.86772,-3.59853 10.089,-6.57067 2.25258,-2.97214 3.37996,-6.77326 3.37996,-11.40354 0,-6.69516 -2.15964,-11.59058 -6.47707,-14.68787 -4.28614,-3.09729 -11.04231,-4.64566 -20.27162,-4.64566 z m -217.32672,13.0925 h 7.60238 c 3.78558,0 6.49237,0.68885 8.11922,2.06542 1.65815,1.37658 2.48665,3.66034 2.48665,6.8515 0,3.22242 -0.8285,5.53723 -2.48665,6.94509 -1.62685,1.40786 -4.33364,2.11222 -8.11922,2.11222 h -7.60238 z m 235.39454,0 h 7.60237 c 3.78557,0 6.49237,0.68885 8.11922,2.06542 1.65815,1.37658 2.48665,3.66034 2.48665,6.8515 0,3.22242 -0.8285,5.53723 -2.48665,6.94509 -1.62685,1.40786 -4.33365,2.11222 -8.11922,2.11222 h -7.60237 z"
     style="font-style:normal;font-variant:normal;font-weight:bold;font-stretch:normal;font-size:92.2478px;line-height:1.25;font-family:sans-serif;-inkscape-font-specification:'sans-serif Bold';fill:#ffffff;stroke-width:3.00342"
     id="path1001" />
</svg>
