<?xml version="1.0" encoding="UTF-8" standalone="no"?>
<svg
   xmlns:dc="http://purl.org/dc/elements/1.1/"
   xmlns:cc="http://creativecommons.org/ns#"
   xmlns:rdf="http://www.w3.org/1999/02/22-rdf-syntax-ns#"
   xmlns:svg="http://www.w3.org/2000/svg"
   xmlns="http://www.w3.org/2000/svg"
   height="360.62781"
   width="474.20001"
   id="svg48"
   version="1.1"
   viewBox="0 0 474.20002 360.62781">
  <metadata
     id="metadata54">
    <rdf:RDF>
      <cc:Work
         rdf:about="">
        <dc:format>image/svg+xml</dc:format>
        <dc:type
           rdf:resource="http://purl.org/dc/dcmitype/StillImage" />
        <dc:title></dc:title>
      </cc:Work>
    </rdf:RDF>
  </metadata>
  <defs
     id="defs52" />
  <path
     d="M 0.63,10.342 V 80.796 A 10.406,10.342 0 0 0 11.036,91.138 H 39.775 A 10.406,10.342 0 0 0 50.181,80.796 V 10.342 A 10.406,10.342 0 0 0 39.775,0 H 11.036 A 10.406,10.342 0 0 0 0.63,10.342"
     fill-rule="evenodd"
     id="path2" />
  <path
     d="m 11.24,80.052 h 451.81 a 8.9629,8.9629 0 0 1 8.9629,8.9629 v 262.65 a 8.9629,8.9629 0 0 1 -8.9629,8.9629 H 11.24 A 8.9629,8.9629 0 0 1 2.2771,351.6649 V 89.0149 A 8.9629,8.9629 0 0 1 11.24,80.052"
     fill-rule="evenodd"
     id="path4" />
  <g
     transform="matrix(0.6937,0,0,0.68949,-51.033,-146.898)"
     fill-rule="evenodd"
     id="g16">
    <path
       d="m 73.681,283.34 h 683.46 v 71.429 H 73.681 Z"
       id="path6" />
    <path
       transform="matrix(1,0,0.46575,-0.85854,7.6294e-6,14.082)"
       d="m 328.83,-392.17 h 65.393 v 73.897 H 328.83 Z"
       fill="#ffffff"
       id="path8" />
    <path
       transform="matrix(1,0,0.46575,-0.85854,7.6294e-6,14.082)"
       d="m 496.28,-392.17 h 65.393 v 73.897 H 496.28 Z"
       fill="#ffffff"
       id="path10" />
    <path
       transform="matrix(1,0,0.46575,-0.85854,7.6294e-6,14.082)"
       d="m 663.73,-392.17 h 65.393 v 73.897 H 663.73 Z"
       fill="#ffffff"
       id="path12" />
    <path
       transform="matrix(1,0,0.46575,-0.85854,7.6294e-6,14.082)"
       d="m 831.18,-392.17 h 65.393 v 73.897 H 831.18 Z"
       fill="#ffffff"
       id="path14" />
  </g>
  <path
     d="M 34.983744,18.390816 A 9.9101905,9.850013 0.00570209 1 1 15.315753,20.823408 9.9101905,9.850013 0.00570209 1 1 34.983744,18.390816 Z"
     fill="#ffffff"
     fill-rule="evenodd"
     stroke="#ffffff"
     stroke-width="2.76636"
     id="path28" />
  <path
     d="M 0,97.772 H 474.2"
     fill="none"
     stroke="#cccccc"
     stroke-width="0.69159"
     id="path30" />
  <g
     transform="matrix(0.6937,0,0,0.68949,-51.033,-146.888)"
     fill="none"
     stroke="#ffffff"
     id="g44">
    <path
       d="M 104.12,618.35 H 726.7"
       stroke-width="4"
       id="path32" />
    <g
       transform="translate(-20.782)"
       stroke-width="4"
       id="g38">
      <path
         d="M 307.96,713.15 V 619.317"
         id="path34" />
      <path
         d="M 564.43,713.15 V 619.317"
         id="path36" />
    </g>
  </g>
  <path
     d="M 27.810245,152.53216 V 222.5956 H 45.878072 V 192.89021 H 74.738976 V 179.23404 H 45.878072 v -13.04571 h 30.69027 v -13.65617 z m 65.700628,0 v 70.06344 h 49.789787 v -13.65617 h -31.72197 v -16.04922 h 28.86091 v -13.65617 h -28.86091 v -13.0457 h 30.69028 v -13.65617 z m 65.698597,0 v 70.06344 h 18.06781 v -26.51467 h 5.11573 c 2.94087,0 5.28671,0.64229 7.03871,1.92501 1.78328,1.28271 3.53541,3.67511 5.25612,7.17911 l 8.54047,17.41055 h 19.24195 l -9.8082,-19.8972 c -2.00227,-4.03586 -3.9892,-7.03951 -5.9602,-9.01051 -1.93971,-2.00229 -4.14589,-3.28485 -6.61747,-3.84799 4.50516,-1.40786 7.86976,-3.59853 10.09104,-6.57067 2.25258,-2.97214 3.37791,-6.77326 3.37791,-11.40354 0,-6.69516 -2.15759,-11.59058 -6.47502,-14.68787 -4.28614,-3.09729 -11.04435,-4.64566 -20.27365,-4.64566 z m 73.96027,0 v 70.06344 h 17.12973 v -51.24474 l 16.14282,37.77781 h 11.45035 l 16.14282,-37.77781 v 51.24474 h 17.08293 v -70.06344 h -22.94751 l -16.05125,37.49496 -15.9556,-37.49496 z m 95.73363,0 v 70.06344 h 49.79182 v -13.65617 h -31.72401 v -16.04922 h 28.86092 v -13.65617 h -28.86092 v -13.0457 h 30.69232 v -13.65617 z m 65.70063,0 v 70.06344 h 18.06782 v -26.51467 h 5.11572 c 2.94086,0 5.28671,0.64229 7.03871,1.92501 1.78328,1.28271 3.53541,3.67511 5.25612,7.17911 l 8.54045,17.41055 h 19.24196 l -9.80819,-19.8972 c -2.00228,-4.03586 -3.9892,-7.03951 -5.9602,-9.01051 -1.93972,-2.00229 -4.14591,-3.28485 -6.61747,-3.84799 4.50514,-1.40786 7.86772,-3.59853 10.089,-6.57067 2.25258,-2.97214 3.37996,-6.77326 3.37996,-11.40354 0,-6.69516 -2.15964,-11.59058 -6.47707,-14.68787 -4.28614,-3.09729 -11.04231,-4.64566 -20.27162,-4.64566 z m -217.32672,13.0925 h 7.60238 c 3.78558,0 6.49237,0.68885 8.11922,2.06542 1.65815,1.37658 2.48665,3.66034 2.48665,6.8515 0,3.22242 -0.8285,5.53723 -2.48665,6.94509 -1.62685,1.40786 -4.33364,2.11222 -8.11922,2.11222 h -7.60238 z m 235.39454,0 h 7.60237 c 3.78557,0 6.49237,0.68885 8.11922,2.06542 1.65815,1.37658 2.48665,3.66034 2.48665,6.8515 0,3.22242 -0.8285,5.53723 -2.48665,6.94509 -1.62685,1.40786 -4.33365,2.11222 -8.11922,2.11222 h -7.60237 z"
     style="font-style:normal;font-variant:normal;font-weight:bold;font-stretch:normal;font-size:92.2478px;line-height:1.25;font-family:sans-serif;-inkscape-font-specification:'sans-serif Bold';fill:#ffffff;stroke-width:3.00342"
     id="path1001" />
</svg>
