<?xml version="1.0"?>
<svg xmlns:rdf="http://www.w3.org/1999/02/22-rdf-syntax-ns#" xmlns="http://www.w3.org/2000/svg" xmlns:cc="http://web.resource.org/cc/" xmlns:dc="http://purl.org/dc/elements/1.1/" xmlns:svg="http://www.w3.org/2000/svg" id="svg1310" viewBox="0 0 345.15 231.42" version="1.0">
  <g id="layer1" transform="translate(-41.798 -96.791)">
    <g id="g1322" transform="matrix(.6189 0 0 .6189 30.473 85.006)">
      <g id="g15499" stroke="#000" stroke-width="5" transform="matrix(1.2515 0 0 1.2515 -629.16 -229.81)">
        <path id="path8344" d="m888.29 251.46c-30.01-32.05-75.4-27.09-102.51 21.66-27.1 48.74-62.44 70.94-111.79 45.73-49.35-25.2-98.63-32.92-94.8 15.67l5.24 29.55 28.37 44.13 107.25 50.81 151-43.05 62.1-98.08-44.86-66.42z" fill="#fff" fill-rule="evenodd"/>
        <path id="path8342" d="m940.58 278.9c50.72-52.91-35-116.77-63.71-46.63-28.72 70.13-108.29 131.56-188.59 127.81-53.56 10.93-151.68-67.59-165.19-15.96-13.51 51.62 22.07 67.86 51.81 73.44" fill="#fff" fill-rule="evenodd"/>
        <path id="path8350" d="m916.08 282.56c-14.45-0.1-29.01-8.03-47.75-13.5-18.74-5.48-35.28-5.32-41.56 20.42-6.32 25.97 20.5 34.61 14.55 50.04-15.49 11.87-37.48 0.48-54.71-3.36-21.52-8.72-36.52 12.09-36.89 31.8-1.75 19.39-25.76 15.99-34.43 3.53-7.69-11.28-16.59-25.91-32.71-23.5-12.65 4.09-23.61 21.14-38.89 14.39-15.29-6.74-9.19-20.94-18.4-34.46-9.2-13.51-25.24 7.84-17.58 23.74 7.66 15.89 19.59 33.18 39.2 29.7 16.33 5.38 29.1-17.03 44.72-6.07 15.61 10.97 19.14 28.16 38.24 28.96 21.07 1.48 34.82-21.52 40.05-40.1 5.98-17.67 24.99 1.24 39.55 4.58s39.84-4.07 51.39-17.73c15.47-21.86-23.69-48.21-11.46-62.69 11.39-13.48 24.51 10.35 36.65 13.11 9.35 0.55 28.75 10.28 6.55 11.34" fill="#fff" fill-rule="evenodd"/>
        <path id="path8340" d="m892.27 428.71c109.73-67.13 72.14-200.96-8.12-142.1-80.26 58.87-138.26 137.25-213.18 99.27-74.91-37.98-144.52 24.75-71.84 81.12 90.86 51.29 183.36 28.85 293.14-38.29z" fill="#fff" fill-rule="evenodd"/>
        <path id="path13640" d="m539.96 346.53c-10.22-0.35-17.18 9.25-20.1 17.95" stroke-linecap="round" fill="none"/>
        <path id="path13644" d="m935.6 208.67c-9.66 0.71-21.67 2.82-25.85 12.92" stroke-linecap="round" fill="none"/>
      </g>
    </g>
  </g>
  <metadata>
    <rdf:RDF>
      <cc:Work>
        <dc:format>image/svg+xml</dc:format>
        <dc:type rdf:resource="http://purl.org/dc/dcmitype/StillImage"/>
        <cc:license rdf:resource="http://creativecommons.org/licenses/publicdomain/"/>
        <dc:publisher>
          <cc:Agent rdf:about="http://openclipart.org/">
            <dc:title>Openclipart</dc:title>
          </cc:Agent>
        </dc:publisher>
        <dc:title>hotdog</dc:title>
        <dc:date>2006-12-26T00:00:00</dc:date>
        <dc:description>A line-drawing of a hotdog.</dc:description>
        <dc:source>http://openclipart.org/detail/3425/-by--3425</dc:source>
        <dc:creator>
          <cc:Agent>
            <dc:title>SRD</dc:title>
          </cc:Agent>
        </dc:creator>
        <dc:subject>
          <rdf:Bag>
            <rdf:li>b_w</rdf:li>
            <rdf:li>clip art</rdf:li>
            <rdf:li>clipart</rdf:li>
            <rdf:li>colouring_book</rdf:li>
            <rdf:li>contour</rdf:li>
            <rdf:li>fast_food</rdf:li>
            <rdf:li>food</rdf:li>
            <rdf:li>hotdog</rdf:li>
          </rdf:Bag>
        </dc:subject>
      </cc:Work>
      <cc:License rdf:about="http://creativecommons.org/licenses/publicdomain/">
        <cc:permits rdf:resource="http://creativecommons.org/ns#Reproduction"/>
        <cc:permits rdf:resource="http://creativecommons.org/ns#Distribution"/>
        <cc:permits rdf:resource="http://creativecommons.org/ns#DerivativeWorks"/>
      </cc:License>
    </rdf:RDF>
  </metadata>
</svg>
